<?xml version="1.0" encoding="utf-8"?><svg xmlns="http://www.w3.org/2000/svg" xmlns:xlink="http://www.w3.org/1999/xlink" version="1.1" class="page" pageAlignment="none" x="0px" y="0px" width="93px" height="63px" viewBox="0 0 93 63" enable-background="new 0 0 93 63" xml:space="preserve"><defs/><style type="text/css"/><style type="text/css"/><g type="LAYER" name="workspace" id="workspace" locked="true"/><path id="XMLID_367_" transform="matrix(1 0 0 1 -259.3687707641188 -339.88372093023)" width="88.80000000000001" height="34.87469999999996" stroke-miterlimit="3" stroke="none" fill="#888" d="M312.4,365.9 C301.79999999999995,368.9 293.7,366.4 283.2,363 C271.9,359.3 261.8,362 261.09999999999997,363.5 C260.29999999999995,365 269.7,379.5 297.9,375.8 C291.79999999999995,374.2 285.5,367.3 277.09999999999997,364.40000000000003 C290.09999999999997,365.90000000000003 293.09999999999997,375.70000000000005 313.7,376.40000000000003 C334.3,377.1 347.5,372.8 349.9,369.20000000000005 C350.9,367.6 330.79999999999995,363.90000000000003 326.4,361.00000000000006 L325.9,359.6000000000001 C324.5,354.7000000000001 319.79999999999995,344.7000000000001 318.79999999999995,343.4000000000001 C317.79999999999995,342.1000000000001 311.69999999999993,341.6000000000001 307.29999999999995,341.6000000000001 L306.9,341.6000000000001 C302.5,341.50000000000006 296.4,342.1000000000001 295.4,343.4000000000001 C294.4,344.7000000000001 289.7,354.80000000000007 288.29999999999995,359.6000000000001 C288.29999999999995,359.6000000000001 287.79999999999995,361.1000000000001 287.59999999999997,361.9000000000001 C287.4,362.7000000000001 300.2,366.7 312.4,365.9 Z "/><g transform="matrix(1 0 0 1 -259.3687707641188 -339.88372093023)" id="XMLID_366_"><path id="XMLID_363_" width="10.262499999999989" height="11.300000000000011" stroke-miterlimit="3" stroke="none" fill="#888" d="M302.5,393.3 L302.5,397.7 C302.5,397.7 299.2,401.4 295.2,401.4 C291.2,401.4 291.3,390.09999999999997 295.2,390.09999999999997 C299.1,390.2 302.5,393.3 302.5,393.3 Z "/><path id="XMLID_364_" width="10.262499999999989" height="11.300000000000011" stroke-miterlimit="3" stroke="none" fill="#888" d="M309.1,393.3 L309.1,397.7 C309.1,397.7 312.40000000000003,401.4 316.40000000000003,401.4 C320.40000000000003,401.4 320.3,390.09999999999997 316.40000000000003,390.09999999999997 C312.50000000000006,390.09999999999997 309.1,393.3 309.1,393.3 Z "/><path id="XMLID_365_" width="9.199999999999989" height="7.800000000000011" stroke-miterlimit="3" stroke="none" fill="#888" d="M300.9,395.5 C300.9,393.34608928 302.95948992,391.6 305.5,391.6 C308.04051008,391.6 310.09999999999997,393.34608928 310.09999999999997,395.5 C310.09999999999997,397.65391072 308.04051008,399.40000000000003 305.5,399.40000000000003 C302.95948992,399.40000000000003 300.9,397.65391072 300.9,395.5 Z "/></g></svg>