<?xml version="1.0" encoding="utf-8"?><svg xmlns="http://www.w3.org/2000/svg" xmlns:xlink="http://www.w3.org/1999/xlink" version="1.1" class="page" pageAlignment="none" x="0px" y="0px" width="40px" height="65px" viewBox="0 0 40 65" enable-background="new 0 0 40 65" xml:space="preserve"><defs/><style type="text/css"/><style type="text/css"/><g type="LAYER" name="workspace" id="workspace" locked="true"/><path id="XMLID_424_" transform="matrix(1 0 0 1 -278.4219269102971 -389.053156146175)" width="32.200000000000045" height="31.30000000000001" stroke-miterlimit="3" stroke="none" fill="#888" d="M314,405.4 L314,405.4 L314,405.09999999999997 L314,404.9 L314,404.9 L314,404.7 C314.1,401.8 313.2,397.4 310.2,394.3 C307.4,391.3 303.3,389.8 298,389.8 L297.9,389.8 C292.59999999999997,389.8 288.5,391.3 285.7,394.3 C282.7,397.5 281.8,401.8 281.9,404.7 L281.9,405 L281.9,405.2 L281.9,405.5 L281.9,408 L281.9,408 C281.9,409.2 282.09999999999997,410.2 282.29999999999995,411.3 C282.29999999999995,411.40000000000003 282.4,411.5 282.4,411.6 C282.4,411.70000000000005 282.5,411.8 282.5,411.90000000000003 C284.4,417.6 290.6,421.1 298,421.1 C305.3,421.1 311.5,417.40000000000003 313.5,411.8 C313.5,411.8 313.5,411.7 313.5,411.7 C313.5,411.59999999999997 313.6,411.5 313.6,411.4 C313.6,411.29999999999995 313.70000000000005,411.2 313.70000000000005,411.09999999999997 C313.70000000000005,411.09999999999997 313.70000000000005,411.09999999999997 313.70000000000005,410.99999999999994 C314.00000000000006,410.09999999999997 314.1,409.19999999999993 314.1,408.19999999999993 L314,405.4 Z "/><path id="XMLID_398_" transform="matrix(1 0 0 1 -278.4219269102971 -389.053156146175)" width="16.499999999999943" height="31.000000000000114" stroke-miterlimit="3" stroke="none" fill="#888" d="M306.2,437.3 C306.2,431 306.2,425.3 304.9,421.3 C302.79999999999995,422.1 300.4,422.6 297.9,422.6 C295.5,422.6 293.29999999999995,422.20000000000005 291.29999999999995,421.5 C290.29999999999995,425 289.79999999999995,430.1 289.79999999999995,436.9 C289.79999999999995,437.29999999999995 289.79999999999995,437.7 289.79999999999995,438 C289.79999999999995,438 289.79999999999995,438 289.79999999999995,438 C289.79999999999995,438.7 289.79999999999995,439.4 289.79999999999995,440.1 C289.79999999999995,440.20000000000005 289.79999999999995,440.3 289.79999999999995,440.3 C289.79999999999995,440.40000000000003 289.79999999999995,440.6 289.79999999999995,440.7 C289.79999999999995,441.5 289.79999999999995,442.3 289.9,443 C289.9,443.2 289.9,443.4 289.9,443.6 C289.9,443.70000000000005 289.9,443.70000000000005 289.9,443.70000000000005 C290.2,452.30000000000007 291.2,452.30000000000007 291.59999999999997,452.30000000000007 C292.4,452.30000000000007 292.79999999999995,450.9000000000001 293.49999999999994,448.4000000000001 C293.79999999999995,447.4000000000001 294.09999999999997,446.1000000000001 294.49999999999994,445.4000000000001 C294.49999999999994,445.4000000000001 294.49999999999994,445.4000000000001 294.49999999999994,445.4000000000001 C294.59999999999997,445.2000000000001 294.79999999999995,445.0000000000001 294.8999999999999,444.80000000000007 C294.8999999999999,444.80000000000007 294.8999999999999,444.80000000000007 294.99999999999994,444.70000000000005 C295.19999999999993,444.50000000000006 295.49999999999994,444.40000000000003 295.99999999999994,444.30000000000007 C295.99999999999994,444.30000000000007 297.19999999999993,444.00000000000006 298.29999999999995,444.00000000000006 C299.4,444.00000000000006 300.49999999999994,444.30000000000007 300.49999999999994,444.30000000000007 C300.99999999999994,444.4000000000001 301.3999999999999,444.6000000000001 301.69999999999993,444.70000000000005 C301.69999999999993,444.70000000000005 301.79999999999995,444.70000000000005 301.79999999999995,444.80000000000007 C301.9,445.00000000000006 302.09999999999997,445.20000000000005 302.19999999999993,445.4000000000001 C302.5999999999999,446.2000000000001 302.8999999999999,447.5000000000001 303.0999999999999,448.7000000000001 C303.4999999999999,450.7000000000001 303.7999999999999,452.3000000000001 304.7999999999999,452.3000000000001 C305.6999999999999,452.3000000000001 306.1999999999999,450.10000000000014 306.2999999999999,443.60000000000014 C306.2999999999999,443.60000000000014 306.2999999999999,443.5000000000001 306.2999999999999,443.5000000000001 C306.2999999999999,443.3000000000001 306.2999999999999,443.10000000000014 306.2999999999999,442.9000000000001 C306.2999999999999,442.2000000000001 306.2999999999999,441.4000000000001 306.2999999999999,440.6000000000001 C306.2999999999999,440.50000000000006 306.2999999999999,440.30000000000007 306.2999999999999,440.2000000000001 C306.2999999999999,440.1000000000001 306.2999999999999,440.0000000000001 306.2999999999999,440.0000000000001 C306.2999999999999,439.4000000000001 306.2999999999999,438.9000000000001 306.2999999999999,438.3000000000001 C306.2999999999999,438.3000000000001 306.2999999999999,438.3000000000001 306.2999999999999,438.3000000000001 C306.2,438.1 306.2,437.7 306.2,437.3 Z "/><path id="XMLID_401_" transform="matrix(1 0 0 1 -278.4219269102971 -389.053156146175)" width="10.435199999999952" height="19.5" stroke-miterlimit="3" stroke="none" fill="#888" d="M316.6,436.6 C316.20000000000005,434.40000000000003 312.6,424.20000000000005 308.5,421.1 C308.4,421 308.4,421 308.3,421 C308.1,420.9 308,420.8 307.8,420.7 C307.5,420.5 307.2,420.4 306.90000000000003,420.3 C306.70000000000005,420.40000000000003 306.50000000000006,420.5 306.20000000000005,420.6 L306.30000000000007,421.1 C307.1000000000001,423.6 307.4000000000001,426.70000000000005 307.50000000000006,430.1 C308.80000000000007,434.70000000000005 310.30000000000007,439.20000000000005 311.1000000000001,439.6 C311.7000000000001,439.90000000000003 312.4000000000001,439.8 313.00000000000006,439.70000000000005 C314.30000000000007,439.40000000000003 315.70000000000005,438.50000000000006 316.20000000000005,437.70000000000005 C316.6,437.3 316.7,436.9 316.6,436.6 Z "/><path id="XMLID_411_" transform="matrix(1 0 0 1 -278.4219269102971 -389.053156146175)" width="9.838700000000017" height="19.10000000000008" stroke-miterlimit="3" stroke="none" fill="#888" d="M290,420.6 C289.8,420.5 289.5,420.40000000000003 289.3,420.3 C289.2,420.3 289.1,420.40000000000003 289,420.40000000000003 C288.8,420.50000000000006 288.7,420.6 288.5,420.70000000000005 C288.5,420.70000000000005 288.4,420.80000000000007 288.3,420.80000000000007 C284.2,424.00000000000006 280.6,434.1000000000001 280.2,436.30000000000007 C280.09999999999997,436.6000000000001 280.2,436.9000000000001 280.4,437.30000000000007 C280.9,438.1000000000001 282.29999999999995,439.00000000000006 283.59999999999997,439.30000000000007 C284.09999999999997,439.4000000000001 284.9,439.50000000000006 285.49999999999994,439.20000000000005 C286.09999999999997,438.90000000000003 287.19999999999993,435.90000000000003 288.29999999999995,432.40000000000003 C288.4,427.50000000000006 288.9,423.70000000000005 289.79999999999995,420.90000000000003 L290,420.6 Z "/></svg>