<?xml version="1.0" encoding="utf-8"?><svg xmlns="http://www.w3.org/2000/svg" xmlns:xlink="http://www.w3.org/1999/xlink" version="1.1" class="page" pageAlignment="none" x="0px" y="0px" width="80px" height="65px" viewBox="0 0 80 65" enable-background="new 0 0 80 65" xml:space="preserve"><defs/><style type="text/css"/><style type="text/css"/><g type="LAYER" name="workspace" id="workspace" locked="true"/><path width="17.912700000000086" height="4.237700000000018" stroke-miterlimit="3" stroke="none" fill="none" d="M323.9,410.9 C323.59999999999997,410.79999999999995 323.29999999999995,410.79999999999995 323,410.9 C315.5,414.4 308.5,410.79999999999995 308.4,410.79999999999995 C307.79999999999995,410.49999999999994 307.09999999999997,410.69999999999993 306.9,411.29999999999995 C306.59999999999997,411.9 306.79999999999995,412.59999999999997 307.4,412.9 C307.79999999999995,413.09999999999997 311.29999999999995,414.9 316,414.9 C318.8,414.9 321.5,414.29999999999995 324,413.09999999999997 L324,413.09999999999997 C324.3,412.99999999999994 324.5,412.7 324.6,412.4 C324.70000000000005,412.09999999999997 324.70000000000005,411.79999999999995 324.6,411.5 C324.4,411.2 324.2,411 323.9,410.9 Z "/><path transform="matrix(1 0 0 1 -274.73421926910146 -361.39534883720637)" width="5.591200000000072" height="11" stroke-miterlimit="3" stroke="none" fill="#888" d="M281.4,399.4 L281.5,394.09999999999997 C281.4,394.09999999999997 281.3,394.09999999999997 281.2,394.09999999999997 C278.8,394.09999999999997 277.5,395.29999999999995 277.3,395.7 C276.7,396.59999999999997 276.2,398.7 277.1,400.4 C278.1,402.29999999999995 280.1,404.09999999999997 282.20000000000005,405.09999999999997 C281.7,403.3 281.5,401.4 281.4,399.4 L281.4,399.4 Z "/><path transform="matrix(1 0 0 1 -274.73421926910146 -361.39534883720637)" width="5.063199999999995" height="10.800000000000011" stroke-miterlimit="3" stroke="none" fill="#888" d="M352.5,395.7 C352.2,395.3 351.1,394.2 348.9,394.09999999999997 L348.9,399.4 L348.9,399.4 C348.9,399.4 348.9,399.4 348.9,399.5 L348.9,399.7 L348.9,399.7 C348.9,401.5 348.7,403.3 348.2,404.9 C350.09999999999997,403.9 351.8,402.2 352.7,400.5 C353.7,398.6 353.2,396.5 352.5,395.7 Z "/><path transform="matrix(1 0 0 1 -274.73421926910146 -361.39534883720637)" width="63.69999999999999" height="62.00000000000006" stroke-miterlimit="3" stroke="none" fill="#888" d="M347,394 L347,393.6 L347,393.20000000000005 L347,393.1 L347,392.6 C347.2,386.8 345.3,378.20000000000005 339.5,372 C334,366.1 325.8,363.1 315.4,363.1 L315.29999999999995,363.1 C304.79999999999995,363.1 296.69999999999993,366.1 291.19999999999993,372 C285.3999999999999,378.2 283.49999999999994,386.8 283.69999999999993,392.6 L283.69999999999993,393.20000000000005 L283.69999999999993,393.70000000000005 L283.69999999999993,394.30000000000007 L283.5999999999999,399.20000000000005 L283.5999999999999,399.20000000000005 C283.5999999999999,401.50000000000006 283.8999999999999,403.6 284.4999999999999,405.70000000000005 C284.5999999999999,405.90000000000003 284.5999999999999,406.1 284.6999999999999,406.30000000000007 C284.7999999999999,406.50000000000006 284.7999999999999,406.70000000000005 284.89999999999986,406.9000000000001 C288.6999999999999,418.2000000000001 300.9999999999999,425.1000000000001 315.4999999999999,425.1000000000001 C329.89999999999986,425.1000000000001 342.1999999999999,417.80000000000007 345.9999999999999,406.80000000000007 C345.9999999999999,406.70000000000005 345.9999999999999,406.70000000000005 346.0999999999999,406.6000000000001 C346.19999999999993,406.4000000000001 346.19999999999993,406.30000000000007 346.2999999999999,406.1000000000001 C346.3999999999999,405.9000000000001 346.3999999999999,405.80000000000007 346.4999999999999,405.6000000000001 C346.4999999999999,405.6000000000001 346.4999999999999,405.50000000000006 346.4999999999999,405.50000000000006 C346.9999999999999,403.70000000000005 347.2999999999999,401.90000000000003 347.2999999999999,400.00000000000006 L347.2999999999999,394.20000000000005 L347,394 Z M297.9,398.6 C296.79999999999995,398.6 295.9,397.5 295.9,396.20000000000005 C295.9,394.90000000000003 296.79999999999995,393.80000000000007 297.9,393.80000000000007 C299,393.80000000000007 299.9,394.9000000000001 299.9,396.20000000000005 C299.8,397.5 298.9,398.6 297.9,398.6 Z M324.6,412.3 C324.5,412.6 324.3,412.8 324,413 L324,413 C321.5,414.2 318.8,414.8 316,414.8 C311.2,414.8 307.7,413 307.4,412.8 C306.79999999999995,412.5 306.59999999999997,411.8 306.9,411.2 C307.2,410.59999999999997 307.9,410.4 308.4,410.7 C308.5,410.7 315.5,414.4 323,410.8 C323.3,410.7 323.6,410.7 323.9,410.8 C324.2,410.90000000000003 324.4,411.1 324.5,411.40000000000003 C324.6,411.7 324.7,412 324.6,412.3 Z M331.7,398.6 C330.59999999999997,398.6 329.7,397.5 329.7,396.20000000000005 C329.7,394.90000000000003 330.59999999999997,393.80000000000007 331.7,393.80000000000007 C332.8,393.80000000000007 333.7,394.9000000000001 333.7,396.20000000000005 C333.7,397.5 332.8,398.6 331.7,398.6 Z M344.5,393.7 C344.5,393.7 344.6,393.7 344.6,393.7 C344.5,393.6 344.5,393.6 344.5,393.7 Z "/></svg>